<svg width="550" height="404" viewBox="0 0 550 404" fill="none" xmlns="http://www.w3.org/2000/svg">
<path opacity="0.08" fill-rule="evenodd" clip-rule="evenodd" d="M251.993 3.66708C365.118 -0.299025 440.517 15.8938 480.625 129.842C523.197 250.794 485.986 312.696 386.012 384.426C300.781 445.577 208.115 349.574 124.111 286.487C35.052 219.604 36.1359 186.705 75.7158 77.8438C110.662 -18.2724 156.171 7.02656 251.993 3.66708Z" fill="url(#paint0_linear_15273_27324)"/>
<g filter="url(#filter0_d_15273_27324)">
<rect x="59" y="13" width="278" height="217" rx="10" fill="white"/>
</g>
<path d="M59 19C59 15.6863 61.6863 13 65 13H331C334.314 13 337 15.6863 337 19V40H59V19Z" fill="#EAF4FE"/>
<path d="M78.6462 26.807C78.6462 28.9096 76.9345 30.614 74.8231 30.614C72.7116 30.614 71 28.9096 71 26.807C71 24.7045 72.7116 23 74.8231 23C76.9345 23 78.6462 24.7045 78.6462 26.807Z" fill="#FF6259"/>
<path d="M91.2926 26.807C91.2926 28.9096 89.581 30.614 87.4696 30.614C85.3581 30.614 83.6465 28.9096 83.6465 26.807C83.6465 24.7045 85.3581 23 87.4696 23C89.581 23 91.2926 24.7045 91.2926 26.807Z" fill="#FFBE2F"/>
<path d="M103.939 26.807C103.939 28.9096 102.227 30.614 100.116 30.614C98.0046 30.614 96.293 28.9096 96.293 26.807C96.293 24.7045 98.0046 23 100.116 23C102.227 23 103.939 24.7045 103.939 26.807Z" fill="#29CD41"/>
<g filter="url(#filter1_d_15273_27324)">
<rect width="121" height="217" rx="10" transform="matrix(-1 0 0 1 473 13)" fill="white"/>
</g>
<path d="M77.4997 296.863C35.0998 296.863 0.727844 290.011 0.727844 281.559C0.727844 273.107 35.0998 266.256 77.4997 266.256C119.9 266.256 154.271 273.107 154.271 281.559C154.271 290.011 119.9 296.863 77.4997 296.863Z" fill="#BBE0F8"/>
<path d="M63.8372 169.487C64.0935 168.392 68.7559 169.486 72.8835 169.485C84.1305 169.485 80.6567 175.183 80.6567 175.183C82.6709 179.027 79.8095 184.538 79.8095 184.538H72.9823H72.9244H66.0973C66.0973 184.538 63.2357 179.027 65.2499 175.183C65.2847 175.116 65.3285 175.06 65.3656 174.996C61.8698 173.703 63.3035 171.764 63.8372 169.487Z" fill="black"/>
<path d="M33.434 249.535H117.965V268.455H33.434V249.535Z" fill="#050542"/>
<path d="M45.6498 264.168V279.179H111.325C112.657 279.179 113.957 278.804 115.086 278.096C120.172 274.908 133.446 264.996 125.279 252.577C123.692 250.163 120.791 248.964 117.965 249.535L45.6498 264.168Z" fill="#050542"/>
<path d="M111.22 294.032L113.117 285.382L98.1273 279.191L95.5216 291.071L111.22 294.032Z" fill="url(#paint1_linear_15273_27324)"/>
<path d="M98.5386 292.681L34.335 278.816C33.0333 278.535 31.8408 277.894 30.8856 276.964C26.5828 272.774 15.6867 260.282 26.2779 249.865C28.3365 247.84 31.4239 247.28 34.0669 248.435L101.689 278.006" fill="#050542"/>
<path d="M116.952 298.342C116.736 299.322 115.669 299.832 114.762 299.408C111.133 297.713 109.03 293.668 109.926 289.585C110.821 285.501 114.423 282.715 118.426 282.703C119.427 282.7 120.182 283.612 119.967 284.593L116.952 298.342Z" fill="black"/>
<path d="M36.7346 247.478L36.0135 247.242C32.7217 246.163 30.9254 242.612 32.0014 239.311L38.2152 219.879L50.2812 226.108L44.6432 243.455C43.5671 246.756 40.0263 248.557 36.7346 247.478Z" fill="url(#paint2_linear_15273_27324)"/>
<path d="M65.1177 256.573L34.6559 246.836C32.332 246.093 31.1041 243.548 31.9653 241.259C33.2588 237.823 41.361 237.223 44.7879 238.52L67.1484 251.177L65.1177 256.573Z" fill="url(#paint3_linear_15273_27324)"/>
<path d="M110.701 247.478L111.422 247.242C114.714 246.163 116.51 242.612 115.434 239.311L109.22 219.879L97.1542 226.108L102.792 243.455C103.868 246.756 107.409 248.557 110.701 247.478Z" fill="url(#paint4_linear_15273_27324)"/>
<path d="M82.3181 256.573L112.78 246.836C115.104 246.093 116.332 243.548 115.47 241.259C114.177 237.823 106.075 237.223 102.648 238.52L80.2873 251.177L82.3181 256.573Z" fill="url(#paint5_linear_15273_27324)"/>
<path d="M67 206L79 204.952L78.0459 191H68.4895L67 206Z" fill="url(#paint6_linear_15273_27324)"/>
<path d="M35.9991 219.609L41.6346 208.631C45.4871 201.126 53.1594 196.881 61.0439 197.052C61.7617 196.94 67.2488 197.001 68 197.001C68 197.001 69.208 203.162 73.5645 203.105C77.7876 203.05 78.5 197.001 78.5 197.001C79.2497 197.001 84.9941 196.94 85.7106 197.051C93.4917 196.991 101.023 201.219 104.827 208.631L110.463 219.609L96.3087 226.916L95.0642 257.101C95.027 258.005 94.2852 258.719 93.3828 258.719H53.3758C52.4733 258.719 51.7317 258.005 51.6943 257.101L50.4564 227.072L35.9991 219.609Z" fill="#007CF4"/>
<path d="M50.922 226.972C50.9253 226.972 50.9287 226.972 50.9322 226.971C51.0343 226.966 51.1126 226.878 51.1072 226.776L50.4489 214.445C50.4435 214.343 50.3589 214.265 50.254 214.27C50.1519 214.275 50.0736 214.363 50.079 214.465L50.7373 226.796C50.7427 226.895 50.8243 226.972 50.922 226.972Z" fill="#1F191A"/>
<path d="M96.7955 226.972C96.8931 226.972 96.9749 226.895 96.9801 226.796L97.6384 214.465C97.6438 214.363 97.5655 214.275 97.4634 214.27C97.3627 214.265 97.2741 214.343 97.2687 214.445L96.6104 226.776C96.605 226.878 96.6833 226.966 96.7854 226.971C96.7888 226.972 96.7921 226.972 96.7955 226.972Z" fill="#1F191A"/>
<path d="M66.7753 183.495L66.872 183.46C67.5222 183.223 67.9355 182.581 67.8825 181.89L67.7681 180.398C67.6813 179.267 68.5732 178.301 69.7047 178.301H76.5664C77.6659 178.301 78.5462 179.215 78.5076 180.317L78.4441 182.128C78.4222 182.753 78.8164 183.317 79.41 183.51C79.4613 183.506 79.5106 183.495 79.5629 183.495C80.5627 183.495 81.373 184.308 81.373 185.31C81.373 186.313 80.5625 187.125 79.5629 187.125C79.5106 187.125 79.4613 187.114 79.41 187.11V187.319C79.41 190.818 76.5816 193.655 73.0928 193.655C69.6039 193.655 66.7755 190.818 66.7755 187.319V187.125C65.7757 187.125 64.9653 186.313 64.9653 185.31C64.9652 184.308 65.7757 183.495 66.7753 183.495Z" fill="url(#paint7_linear_15273_27324)"/>
<path d="M53.3214 260.137H94.5988C95.3759 260.137 96.025 259.543 96.0968 258.767L99.2317 224.863C99.3135 223.979 98.6194 223.215 97.7337 223.215H49.5902C48.694 223.215 47.9964 223.996 48.0947 224.889L51.8259 258.794C51.91 259.558 52.5543 260.137 53.3214 260.137Z" fill="#BBE0F8"/>
<path d="M73.6495 245.881C71.3341 245.881 69.4572 243.999 69.4572 241.677C69.4572 239.355 71.3341 237.473 73.6495 237.473C75.9648 237.473 77.8418 239.355 77.8418 241.677C77.8418 243.999 75.9648 245.881 73.6495 245.881Z" fill="#72C4F4"/>
<path d="M399.339 47.542L402.063 29.6118C401.529 29.5691 400.992 29.541 400.448 29.541C389.38 29.541 380.408 38.5597 380.408 49.685C380.408 60.8102 389.38 69.8289 400.448 69.8289C411.515 69.8289 420.487 60.8102 420.487 49.685C420.487 46.4867 419.743 43.4645 418.423 40.7786L399.339 47.542Z" fill="white"/>
<path d="M400.447 70.2372C389.172 70.2372 380 61.0171 380 49.6843C380 38.351 389.172 29.1309 400.447 29.1309C400.951 29.1309 401.489 29.1544 402.095 29.2029L402.531 29.2381L399.844 46.928L418.628 40.271L418.788 40.597C420.185 43.4417 420.894 46.4993 420.894 49.6845C420.894 61.0171 411.722 70.2372 400.447 70.2372ZM400.447 29.9495C389.622 29.9495 380.815 38.8022 380.815 49.6841C380.815 60.5655 389.622 69.4182 400.447 69.4182C411.272 69.4182 420.079 60.5655 420.079 49.6841C420.079 46.7472 419.452 43.924 418.214 41.2856L398.833 48.1544L401.593 29.988C401.183 29.962 400.805 29.9495 400.447 29.9495Z" fill="#86A7FF"/>
<path d="M423.199 34.6063C420.154 28.4085 414.033 24.0165 406.839 23.4395L404.115 41.3696L423.199 34.6063Z" fill="white"/>
<path d="M403.609 41.9822L406.493 23L406.871 23.0305C413.996 23.6023 420.392 27.9684 423.563 34.4245L423.767 34.8383L403.609 41.9822ZM407.183 23.8809L404.62 40.7556L422.625 34.375C419.572 28.5152 413.72 24.5358 407.183 23.8809Z" fill="#86A7FF"/>
<path d="M512 271L510 285.5L495.129 290.928L524 287L525 269" fill="#FFC6AD"/>
<path d="M507.766 281.907C506.846 282.222 507.515 282.856 505.974 284.71C504.434 286.563 495.322 290.142 491.026 291.436C486.869 292.687 487.769 296.27 489.184 296.27C489.184 296.27 509.882 296.27 511.523 296.27C513.163 296.27 514.356 294.943 515.625 294.943C515.97 294.943 516.681 294.703 516.881 294.95C517.193 295.335 517.162 296.27 517.162 296.27H524.737C525.587 296.27 526.086 295.725 526.029 295.092L525.215 284.341C525.215 284.341 515.964 285.597 513.36 284.837C512.307 284.528 513.411 283.725 512.969 283.284C512.528 282.842 508.685 281.594 507.766 281.907Z" fill="#292466"/>
<path d="M464 271L462 285.5L447.129 290.928L476 287L477 269" fill="#FFC6AD"/>
<path d="M460.766 281.907C459.846 282.222 460.513 282.856 458.974 284.71C457.434 286.563 448.322 290.142 444.026 291.436C439.869 292.687 440.769 296.27 442.184 296.27C442.184 296.27 462.882 296.27 464.523 296.27C466.165 296.27 467.356 294.943 468.625 294.943C468.97 294.943 469.681 294.703 469.881 294.95C470.193 295.335 470.162 296.27 470.162 296.27H477.737C478.587 296.27 479.086 295.725 479.028 295.092L478.213 284.341C478.213 284.341 468.963 285.597 466.359 284.837C465.306 284.528 466.409 283.725 465.968 283.284C465.526 282.842 461.685 281.594 460.766 281.907Z" fill="#292466"/>
<path d="M519.305 156.518C519.305 156.518 527.5 244.922 527.5 277C514.927 277 510.8 277 506 277C506 269.922 488.581 180.649 488.581 180.649C488.581 180.649 479.33 211.202 476.687 213.416C476.687 213.416 479.501 269 480.001 276C473.372 276 470.5 276 461 276C461 256 444.501 236.5 449.817 210.316C449.817 210.316 455.543 181.535 465.454 153.86L489.902 147.883L519.305 156.518Z" fill="#EB5D60"/>
<path d="M452.241 90.2769C452.241 90.2769 451.498 78.1655 450.837 75.0332C450.177 71.9009 447.864 78.0262 447.864 78.0262C447.864 78.0262 446.378 70.1607 444.808 70.0913C443.239 70.0218 442.826 72.5275 442.826 72.5275C442.826 72.5275 440.761 67.9336 439.439 71.5532C439.439 71.5532 436.962 69.6043 436.879 74.6855C436.879 74.6855 429.446 69.8829 438.806 95.0105L447.203 97.3773L452.241 90.2769Z" fill="#E28B6D"/>
<path d="M498.933 90.5469L521.618 119.992L519.305 156.522L465.455 153.866L474.045 103.72L498.933 90.5469Z" fill="#3A6BEA"/>
<path d="M498.934 90.5466C498.934 90.5466 478.671 88.1114 464.686 104.827C464.686 104.827 455.105 97.078 452.242 88.7754L438.807 94.4209C438.807 94.4209 445.855 130.287 475.147 129.733L498.934 90.5466Z" fill="#3A6BEA"/>
<path d="M474.273 119.956L464.044 121.946C463.032 122.143 462.41 123.177 462.707 124.169L468.85 144.689C469.11 145.558 469.988 146.083 470.872 145.898L481.202 143.738C482.207 143.528 482.814 142.495 482.512 141.509L476.268 121.159C476.006 120.304 475.146 119.786 474.273 119.956Z" fill="white"/>
<path d="M470.509 146.292C469.6 146.292 468.783 145.702 468.51 144.792L462.368 124.272C462.198 123.702 462.275 123.084 462.581 122.575C462.887 122.066 463.395 121.709 463.975 121.596L474.205 119.606C475.255 119.406 476.29 120.023 476.607 121.053L482.85 141.404C483.023 141.97 482.95 142.586 482.65 143.096C482.351 143.605 481.849 143.966 481.273 144.086L470.943 146.246C470.798 146.277 470.651 146.292 470.509 146.292ZM474.605 120.28C474.518 120.28 474.429 120.288 474.341 120.306L464.111 122.296C463.726 122.371 463.389 122.606 463.187 122.943C462.981 123.285 462.931 123.684 463.046 124.066L469.188 144.586C469.397 145.284 470.094 145.696 470.8 145.55L481.129 143.389C481.515 143.308 481.839 143.075 482.04 142.733C482.242 142.391 482.288 141.993 482.171 141.613L475.929 121.264C475.746 120.67 475.203 120.28 474.605 120.28Z" fill="#86A7FF"/>
<path d="M469.513 123.221C468.492 123.387 467.767 124.157 467.893 124.942C468.02 125.727 468.949 126.228 469.97 126.062C470.991 125.896 471.716 125.126 471.59 124.341C471.463 123.556 470.534 123.055 469.513 123.221Z" fill="#86A7FF"/>
<path d="M492.767 130.839C492.767 130.839 471.651 127.297 470.165 128.376C468.678 129.456 471.734 131.199 471.734 131.199C471.734 131.199 466.448 130.618 469.504 133.607C469.504 133.607 466.861 135.433 472.394 138.422C472.394 138.422 463.998 142.048 496.071 148.994L505.184 140.913L492.767 130.839Z" fill="#E28B6D"/>
<path d="M498.934 90.5469C498.934 90.5469 530.65 95.196 535.275 128.405C535.275 128.405 541.882 161.614 496.071 148.995L492.768 130.841L515.012 131.505L498.934 90.5469Z" fill="#3A6BEA"/>
<path d="M492.468 82.168L491.97 90.8083C491.808 93.6122 493.925 96.0128 496.715 96.1752C499.495 96.3373 501.883 94.1989 502.045 91.3953L502.543 82.755L492.468 82.168Z" fill="#E28B6D"/>
<path d="M492.38 83.6543L491.975 90.6923C496.624 89.6332 499.058 84.407 499.058 84.407L492.38 83.6543Z" fill="#102048"/>
<path d="M489.777 70.2891C489.777 70.2891 485.492 85.4291 491.873 86.1996C498.254 86.9702 501.535 83.7324 501.535 83.7324L503.304 75.0643L498.929 71.1415L489.777 70.2891Z" fill="#E28B6D"/>
<path d="M501.501 81.1984C501.33 77.7124 500.488 74.942 498.31 73.5969C498.066 73.4458 497.016 73.666 496.688 73.666C496.032 73.666 495.376 73.6343 494.724 73.5641C493.418 73.4237 492.087 73.1459 490.905 72.5535C488.65 71.4246 487.142 68.215 488.91 65.9568C489.259 65.5123 489.794 65.1129 490.358 65C490.358 65 490.458 67.3981 493.882 66.82C497.307 66.2422 505.2 62.4558 507.001 72.4883C507.001 72.4883 512.658 79.6356 503.822 82.2304L501.501 81.1984Z" fill="#102048"/>
<path d="M504.591 79.7533C503.654 78.7833 501.944 78.9249 500.771 80.0695C499.597 81.2141 499.405 82.9282 500.342 83.8981C501.278 84.868 502.988 84.7264 504.162 83.5819C505.335 82.4373 505.527 80.7232 504.591 79.7533Z" fill="#E28B6D"/>
<path d="M410.032 256.289H389.818V245.264C389.818 243.413 391.316 241.906 393.159 241.906H406.692C408.534 241.906 410.032 243.413 410.032 245.264V256.289ZM390.882 255.22H408.969V245.264C408.969 244.002 407.947 242.975 406.692 242.975H393.159C391.903 242.975 390.882 244.002 390.882 245.264V255.22Z" fill="#3A6BEA"/>
<path d="M431.322 252.328H368.531V296.935H431.322V252.328Z" fill="white"/>
<path d="M431.854 297.468H368V251.793H431.854V297.468H431.854ZM369.063 296.399H430.791V252.862H369.063V296.399Z" fill="#3A6BEA"/>
<path d="M431.111 274.123H368.74V275.192H431.111V274.123Z" fill="#3A6BEA"/>
<path d="M401.899 279.023H397.951C397.086 279.023 396.381 278.315 396.381 277.445V271.873C396.381 271.003 397.085 270.295 397.951 270.295H401.899C402.764 270.295 403.469 271.002 403.469 271.873V277.445C403.469 278.315 402.764 279.023 401.899 279.023ZM397.951 271.364C397.671 271.364 397.444 271.592 397.444 271.873V277.445C397.444 277.726 397.671 277.955 397.951 277.955H401.899C402.179 277.955 402.406 277.726 402.406 277.445V271.873C402.406 271.592 402.179 271.364 401.899 271.364H397.951Z" fill="#3A6BEA"/>
<path d="M314 297L550 297" stroke="black"/>
<defs>
<filter id="filter0_d_15273_27324" x="33.8262" y="0.413092" width="328.348" height="267.348" filterUnits="userSpaceOnUse" color-interpolation-filters="sRGB">
<feFlood flood-opacity="0" result="BackgroundImageFix"/>
<feColorMatrix in="SourceAlpha" type="matrix" values="0 0 0 0 0 0 0 0 0 0 0 0 0 0 0 0 0 0 127 0" result="hardAlpha"/>
<feOffset dy="12.5869"/>
<feGaussianBlur stdDeviation="12.5869"/>
<feComposite in2="hardAlpha" operator="out"/>
<feColorMatrix type="matrix" values="0 0 0 0 0.117647 0 0 0 0 0.129412 0 0 0 0 0.176471 0 0 0 0.06 0"/>
<feBlend mode="normal" in2="BackgroundImageFix" result="effect1_dropShadow_15273_27324"/>
<feBlend mode="normal" in="SourceGraphic" in2="effect1_dropShadow_15273_27324" result="shape"/>
</filter>
<filter id="filter1_d_15273_27324" x="326.826" y="0.413092" width="171.348" height="267.348" filterUnits="userSpaceOnUse" color-interpolation-filters="sRGB">
<feFlood flood-opacity="0" result="BackgroundImageFix"/>
<feColorMatrix in="SourceAlpha" type="matrix" values="0 0 0 0 0 0 0 0 0 0 0 0 0 0 0 0 0 0 127 0" result="hardAlpha"/>
<feOffset dy="12.5869"/>
<feGaussianBlur stdDeviation="12.5869"/>
<feComposite in2="hardAlpha" operator="out"/>
<feColorMatrix type="matrix" values="0 0 0 0 0.117647 0 0 0 0 0.129412 0 0 0 0 0.176471 0 0 0 0.06 0"/>
<feBlend mode="normal" in2="BackgroundImageFix" result="effect1_dropShadow_15273_27324"/>
<feBlend mode="normal" in="SourceGraphic" in2="effect1_dropShadow_15273_27324" result="shape"/>
</filter>
<linearGradient id="paint0_linear_15273_27324" x1="247.1" y1="3.14002" x2="247.1" y2="404" gradientUnits="userSpaceOnUse">
<stop stop-color="#FF7300"/>
<stop offset="1" stop-color="#FF7300" stop-opacity="0"/>
</linearGradient>
<linearGradient id="paint1_linear_15273_27324" x1="130.717" y1="291.924" x2="98.1146" y2="285.427" gradientUnits="userSpaceOnUse">
<stop offset="0.2964" stop-color="#FFACAA"/>
<stop offset="0.5407" stop-color="#FFA9A8"/>
<stop offset="0.6877" stop-color="#FEA1A0"/>
<stop offset="0.8089" stop-color="#FD9491"/>
<stop offset="0.9154" stop-color="#FC807D"/>
<stop offset="1" stop-color="#FB6B67"/>
</linearGradient>
<linearGradient id="paint2_linear_15273_27324" x1="32.4049" y1="250.667" x2="46.659" y2="220.922" gradientUnits="userSpaceOnUse">
<stop offset="0.0765" stop-color="#FFACAA"/>
<stop offset="0.1697" stop-color="#FE9C9A"/>
<stop offset="0.3389" stop-color="#FD8784"/>
<stop offset="0.522" stop-color="#FB7774"/>
<stop offset="0.7272" stop-color="#FB6E6A"/>
<stop offset="1" stop-color="#FB6B67"/>
</linearGradient>
<linearGradient id="paint3_linear_15273_27324" x1="69.3187" y1="251.926" x2="29.5748" y2="239.859" gradientUnits="userSpaceOnUse">
<stop offset="0.4644" stop-color="#FFACAA"/>
<stop offset="0.583" stop-color="#FFA7A5"/>
<stop offset="0.7273" stop-color="#FE9896"/>
<stop offset="0.8843" stop-color="#FC817E"/>
<stop offset="1" stop-color="#FB6B67"/>
</linearGradient>
<linearGradient id="paint4_linear_15273_27324" x1="115.031" y1="250.667" x2="100.777" y2="220.922" gradientUnits="userSpaceOnUse">
<stop offset="0.0765" stop-color="#FFACAA"/>
<stop offset="0.1697" stop-color="#FE9C9A"/>
<stop offset="0.3389" stop-color="#FD8784"/>
<stop offset="0.522" stop-color="#FB7774"/>
<stop offset="0.7272" stop-color="#FB6E6A"/>
<stop offset="1" stop-color="#FB6B67"/>
</linearGradient>
<linearGradient id="paint5_linear_15273_27324" x1="78.1169" y1="251.926" x2="117.861" y2="239.859" gradientUnits="userSpaceOnUse">
<stop offset="0.4644" stop-color="#FFACAA"/>
<stop offset="0.583" stop-color="#FFA7A5"/>
<stop offset="0.7273" stop-color="#FE9896"/>
<stop offset="0.8843" stop-color="#FC817E"/>
<stop offset="1" stop-color="#FB6B67"/>
</linearGradient>
<linearGradient id="paint6_linear_15273_27324" x1="73.2677" y1="209.487" x2="73.2677" y2="190.902" gradientUnits="userSpaceOnUse">
<stop offset="0.5075" stop-color="#FFACAA"/>
<stop offset="0.8574" stop-color="#FB6B67"/>
</linearGradient>
<linearGradient id="paint7_linear_15273_27324" x1="73.2642" y1="197.517" x2="73.1236" y2="179.564" gradientUnits="userSpaceOnUse">
<stop stop-color="#FFACAA"/>
<stop offset="0.2256" stop-color="#FFA7A6"/>
<stop offset="0.4872" stop-color="#FE9A98"/>
<stop offset="0.7655" stop-color="#FC8480"/>
<stop offset="1" stop-color="#FB6B67"/>
</linearGradient>
</defs>
</svg>
